<svg aria-hidden="true" style="position: absolute; width: 0; height: 0; overflow: hidden;" version="1.1" xmlns="http://www.w3.org/2000/svg" xmlns:xlink="http://www.w3.org/1999/xlink">
<defs>
<symbol id="icon-spade" viewBox="0 0 32 32">
<path d="M16 23.294l-11.647-11.647 11.647-11.647 11.647 11.647-11.647 11.647z"></path>
<path d="M16 11.647c3.216-3.216 8.431-3.216 11.647 0s3.216 8.431 0 11.647c-3.216 3.216-8.431 3.216-11.647 0s-3.216-8.431 0-11.647z"></path>
<path d="M4.353 11.647c3.216-3.216 8.431-3.216 11.647 0s3.216 8.431 0 11.647c-3.216 3.216-8.431 3.216-11.647 0s-3.216-8.431 0-11.647z"></path>
<path d="M16 15.529q0 10.981-5.49 16.471h10.981q-5.49-5.49-5.49-16.471z"></path>
</symbol>
<symbol id="icon-heart" viewBox="0 0 32 32">
<path d="M16 4.118l13.255 13.255-13.255 13.255-13.255-13.255 13.255-13.255z"></path>
<path d="M16 17.373c-3.66 3.66-9.595 3.66-13.255 0s-3.66-9.595 0-13.255c3.66-3.66 9.595-3.66 13.255 0s3.66 9.595 0 13.255z"></path>
<path d="M29.255 17.373c-3.66 3.66-9.595 3.66-13.255 0s-3.66-9.595 0-13.255c3.66-3.66 9.595-3.66 13.255 0s3.66 9.595 0 13.255z"></path>
</symbol>
<symbol id="icon-diamond" viewBox="0 0 32 32">
<path d="M16 0l16 16-16 16-16-16 16-16z"></path>
</symbol>
<symbol id="icon-club" viewBox="0 0 32 32">
<path d="M17.085 18.441c0 4.194-3.4 7.593-7.593 7.593s-7.593-3.4-7.593-7.593c0-4.194 3.4-7.593 7.593-7.593s7.593 3.4 7.593 7.593z"></path>
<path d="M23.593 7.593c0 4.194-3.4 7.593-7.593 7.593s-7.593-3.4-7.593-7.593c0-4.194 3.4-7.593 7.593-7.593s7.593 3.4 7.593 7.593z"></path>
<path d="M30.102 18.441c0 4.194-3.4 7.593-7.593 7.593s-7.593-3.4-7.593-7.593c0-4.194 3.4-7.593 7.593-7.593s7.593 3.4 7.593 7.593z"></path>
<path d="M16 15.729q0 10.847-5.424 16.271h10.847q-5.424-5.424-5.424-16.271z"></path>
</symbol>
</defs>
</svg>
