<svg aria-hidden="true" style="position: absolute; width: 0; height: 0; overflow: hidden;" version="1.1" xmlns="http://www.w3.org/2000/svg" xmlns:xlink="http://www.w3.org/1999/xlink">
<defs>
<symbol id="icon-saleforse-logo-black-1" viewBox="0 0 32 32">
<path fill="#000" style="fill: var(--color1, #000)" d="M13.316 7.219c1.032-1.077 2.469-1.744 4.057-1.744 2.117 0 3.951 1.178 4.939 2.934 0.877-0.393 1.826-0.596 2.787-0.595 3.81 0 6.902 3.123 6.902 6.976s-3.093 6.976-6.902 6.976c-0.466 0-0.92-0.047-1.364-0.135-0.864 1.544-2.516 2.592-4.398 2.592-0.766 0.001-1.522-0.173-2.211-0.509-0.876 2.062-2.916 3.511-5.291 3.511-2.481 0-4.586-1.567-5.397-3.771-0.361 0.076-0.729 0.115-1.098 0.115-2.951 0-5.338-2.427-5.338-5.409 0-2.003 1.075-3.747 2.669-4.69-0.338-0.781-0.512-1.623-0.511-2.475 0-3.441 2.787-6.222 6.22-6.222 2.011 0 3.81 0.96 4.939 2.451z"></path>
<path fill="#fffffe" style="fill: var(--color2, #fffffe)" d="M4.661 16.411c-0.020 0.053 0.007 0.064 0.014 0.073 0.060 0.044 0.121 0.075 0.182 0.111 0.327 0.173 0.635 0.224 0.957 0.224 0.656 0 1.064-0.35 1.064-0.913v-0.011c0-0.521-0.461-0.711-0.891-0.846l-0.056-0.018c-0.326-0.106-0.607-0.198-0.607-0.412v-0.011c0-0.184 0.165-0.319 0.419-0.319 0.282 0 0.619 0.094 0.834 0.213 0 0 0.064 0.041 0.087-0.020 0.013-0.033 0.122-0.328 0.134-0.361 0.012-0.035-0.009-0.061-0.032-0.074-0.247-0.151-0.588-0.253-0.941-0.253l-0.065 0c-0.601 0-1.021 0.364-1.021 0.885v0.011c0 0.549 0.463 0.728 0.896 0.852l0.070 0.022c0.315 0.097 0.588 0.181 0.588 0.403v0.011c0 0.204-0.178 0.356-0.462 0.356-0.111 0-0.463-0.002-0.845-0.244-0.046-0.027-0.073-0.046-0.108-0.068-0.019-0.011-0.066-0.032-0.086 0.030l-0.129 0.361 0 0.001zM14.268 16.41c-0.020 0.053 0.007 0.064 0.014 0.073 0.060 0.044 0.121 0.075 0.182 0.111 0.327 0.173 0.635 0.224 0.957 0.224 0.656 0 1.064-0.35 1.064-0.913v-0.011c0-0.521-0.46-0.711-0.891-0.846l-0.056-0.018c-0.326-0.106-0.607-0.198-0.607-0.412v-0.011c0-0.184 0.165-0.319 0.419-0.319 0.282 0 0.617 0.094 0.834 0.213 0 0 0.064 0.041 0.087-0.020 0.012-0.033 0.122-0.328 0.133-0.361 0.013-0.035-0.009-0.061-0.032-0.074-0.247-0.151-0.588-0.253-0.941-0.253l-0.066 0c-0.601 0-1.021 0.364-1.021 0.885v0.011c0 0.549 0.463 0.728 0.896 0.852l0.069 0.022c0.316 0.097 0.588 0.181 0.588 0.403v0.011c0 0.204-0.178 0.356-0.462 0.356-0.111 0-0.464-0.002-0.845-0.244-0.046-0.027-0.073-0.046-0.108-0.068-0.012-0.008-0.067-0.029-0.086 0.030l-0.129 0.361 0.001 0.001zM20.827 15.306c0 0.318-0.059 0.569-0.175 0.747-0.116 0.176-0.29 0.262-0.534 0.262s-0.417-0.085-0.532-0.26c-0.115-0.177-0.173-0.429-0.173-0.747s0.058-0.568 0.173-0.744c0.114-0.174 0.287-0.258 0.532-0.258s0.419 0.085 0.534 0.258c0.117 0.176 0.175 0.425 0.175 0.744v-0.001zM21.375 14.717c-0.054-0.183-0.138-0.343-0.249-0.477s-0.253-0.243-0.421-0.32c-0.167-0.078-0.364-0.118-0.588-0.118s-0.42 0.040-0.588 0.118c-0.167 0.078-0.309 0.186-0.421 0.32s-0.195 0.295-0.249 0.477c-0.054 0.181-0.081 0.379-0.081 0.59s0.027 0.409 0.081 0.59c0.054 0.183 0.138 0.343 0.249 0.477s0.254 0.242 0.421 0.318c0.168 0.076 0.366 0.115 0.588 0.115s0.42-0.039 0.587-0.115 0.309-0.184 0.421-0.318c0.112-0.134 0.195-0.295 0.249-0.477 0.053-0.181 0.081-0.379 0.081-0.59 0-0.21-0.027-0.409-0.081-0.59h0.001zM25.878 16.225c-0.018-0.053-0.070-0.033-0.070-0.033-0.080 0.031-0.165 0.059-0.255 0.073s-0.193 0.022-0.3 0.022c-0.265 0-0.476-0.079-0.627-0.236s-0.236-0.409-0.235-0.751c0.001-0.311 0.076-0.544 0.21-0.723 0.133-0.177 0.337-0.269 0.608-0.269 0.226 0 0.398 0.026 0.58 0.083 0 0 0.043 0.019 0.064-0.038 0.048-0.133 0.083-0.229 0.135-0.375 0.015-0.042-0.021-0.059-0.034-0.065-0.071-0.028-0.239-0.073-0.366-0.093-0.119-0.018-0.256-0.028-0.411-0.028-0.23 0-0.435 0.039-0.61 0.118s-0.323 0.186-0.441 0.321c-0.118 0.134-0.207 0.295-0.267 0.477-0.059 0.181-0.089 0.381-0.089 0.592 0 0.455 0.122 0.824 0.365 1.094 0.242 0.271 0.607 0.408 1.082 0.408 0.281 0 0.569-0.057 0.776-0.139 0 0 0.040-0.019 0.022-0.065l-0.135-0.372h-0zM26.837 14.999c0.026-0.177 0.075-0.324 0.151-0.438 0.114-0.174 0.287-0.27 0.53-0.27s0.404 0.096 0.52 0.27c0.076 0.115 0.11 0.267 0.122 0.438h-1.323zM28.683 14.611c-0.047-0.176-0.162-0.354-0.238-0.435-0.12-0.128-0.236-0.219-0.353-0.269-0.168-0.072-0.349-0.108-0.531-0.108-0.232 0-0.442 0.039-0.613 0.119s-0.314 0.19-0.427 0.326c-0.113 0.137-0.198 0.298-0.252 0.483-0.054 0.183-0.081 0.383-0.081 0.593 0 0.214 0.028 0.414 0.084 0.594 0.056 0.181 0.147 0.341 0.269 0.473 0.122 0.133 0.279 0.237 0.467 0.31 0.187 0.072 0.414 0.11 0.674 0.109 0.536-0.002 0.818-0.121 0.934-0.186 0.021-0.012 0.040-0.031 0.016-0.089l-0.121-0.341c-0.019-0.051-0.070-0.032-0.070-0.032-0.133 0.050-0.321 0.139-0.762 0.138-0.288-0-0.501-0.086-0.635-0.219-0.136-0.137-0.205-0.336-0.215-0.619l1.858 0.001c0 0 0.049-0 0.054-0.048 0.002-0.020 0.064-0.382-0.055-0.8l-0.003-0zM11.985 14.999c0.026-0.177 0.075-0.324 0.15-0.438 0.114-0.174 0.287-0.27 0.53-0.27s0.405 0.096 0.52 0.27c0.076 0.115 0.11 0.267 0.122 0.438h-1.323zM13.832 14.611c-0.047-0.176-0.162-0.354-0.238-0.435-0.12-0.128-0.236-0.219-0.353-0.269-0.168-0.072-0.349-0.108-0.531-0.108-0.232 0-0.442 0.039-0.613 0.119s-0.314 0.19-0.427 0.326c-0.113 0.137-0.198 0.298-0.252 0.483-0.054 0.183-0.081 0.383-0.081 0.593 0 0.214 0.028 0.414 0.084 0.594 0.056 0.181 0.147 0.341 0.268 0.473 0.122 0.133 0.279 0.237 0.467 0.31 0.187 0.072 0.413 0.11 0.674 0.109 0.536-0.002 0.818-0.121 0.934-0.186 0.020-0.012 0.040-0.031 0.016-0.089l-0.121-0.341c-0.019-0.051-0.070-0.032-0.070-0.032-0.133 0.050-0.321 0.139-0.762 0.138-0.287-0-0.501-0.086-0.635-0.219-0.136-0.137-0.205-0.336-0.215-0.619l1.858 0.001c0 0 0.049-0 0.054-0.048 0.002-0.020 0.064-0.382-0.056-0.8l-0.001-0zM7.976 16.213c-0.073-0.058-0.083-0.072-0.107-0.11-0.037-0.057-0.056-0.138-0.056-0.242 0-0.163 0.054-0.28 0.166-0.359-0.001 0 0.16-0.139 0.539-0.134 0.169 0.003 0.337 0.017 0.503 0.043v0.845h0c0 0-0.235 0.051-0.501 0.067-0.377 0.023-0.544-0.109-0.543-0.108l-0.001-0.001zM8.714 14.905c-0.075-0.006-0.173-0.008-0.289-0.008-0.159 0-0.313 0.020-0.456 0.059-0.145 0.039-0.275 0.1-0.387 0.18s-0.204 0.185-0.269 0.306c-0.066 0.123-0.099 0.266-0.099 0.429 0 0.165 0.029 0.308 0.085 0.424 0.055 0.116 0.139 0.216 0.242 0.291s0.23 0.131 0.377 0.164c0.146 0.033 0.31 0.050 0.492 0.050 0.19 0 0.38-0.016 0.563-0.047 0.156-0.027 0.312-0.057 0.467-0.091 0.062-0.014 0.131-0.033 0.131-0.033 0.046-0.012 0.042-0.061 0.042-0.061l-0.001-1.697c0-0.372-0.099-0.649-0.295-0.82s-0.481-0.257-0.851-0.257c-0.139 0-0.363 0.019-0.497 0.046 0 0-0.404 0.079-0.571 0.21 0 0-0.037 0.023-0.017 0.074l0.132 0.354c0.016 0.046 0.061 0.030 0.061 0.030s0.014-0.006 0.030-0.015c0.356-0.194 0.808-0.189 0.808-0.189 0.2 0 0.355 0.041 0.459 0.12 0.101 0.078 0.153 0.196 0.153 0.443v0.079c-0.159-0.023-0.306-0.036-0.306-0.036l-0.002-0.004zM23.648 13.947c0.003-0.006 0.004-0.013 0.004-0.020s-0.001-0.013-0.004-0.020c-0.003-0.006-0.007-0.012-0.011-0.017s-0.011-0.008-0.017-0.011c-0.032-0.012-0.189-0.045-0.31-0.053-0.233-0.015-0.362 0.025-0.479 0.077-0.115 0.052-0.242 0.136-0.313 0.232l-0-0.226c0-0.031-0.022-0.056-0.053-0.056h-0.475c-0.031 0-0.053 0.025-0.053 0.056v2.769c0 0.015 0.006 0.029 0.016 0.040s0.025 0.017 0.040 0.017h0.487c0.015-0 0.029-0.006 0.040-0.017s0.016-0.025 0.016-0.040v-1.39c0-0.186 0.020-0.371 0.061-0.488 0.040-0.115 0.095-0.207 0.162-0.273 0.064-0.064 0.143-0.111 0.229-0.138 0.081-0.023 0.165-0.035 0.249-0.035 0.097 0 0.203 0.025 0.203 0.025 0.036 0.004 0.056-0.018 0.068-0.050 0.032-0.085 0.122-0.339 0.14-0.39z"></path>
<path fill="#fffffe" style="fill: var(--color2, #fffffe)" d="M19.101 12.669c-0.060-0.018-0.121-0.033-0.183-0.044-0.083-0.014-0.168-0.020-0.252-0.020-0.335 0-0.6 0.095-0.786 0.283-0.184 0.186-0.31 0.47-0.373 0.843l-0.023 0.126h-0.421c0 0-0.051-0.002-0.062 0.054l-0.069 0.386c-0.005 0.037 0.011 0.060 0.060 0.060h0.41l-0.416 2.326c-0.032 0.187-0.070 0.341-0.111 0.458-0.041 0.115-0.080 0.202-0.129 0.264-0.047 0.061-0.092 0.105-0.17 0.131-0.064 0.022-0.138 0.031-0.218 0.031-0.045 0-0.105-0.008-0.149-0.016s-0.067-0.019-0.1-0.033c0 0-0.048-0.018-0.067 0.030-0.015 0.039-0.125 0.341-0.138 0.378s0.005 0.066 0.029 0.074c0.055 0.020 0.095 0.032 0.169 0.050 0.103 0.024 0.19 0.026 0.272 0.026 0.171 0 0.326-0.024 0.455-0.071s0.243-0.129 0.343-0.24c0.108-0.12 0.176-0.245 0.241-0.416 0.064-0.169 0.119-0.38 0.163-0.625l0.418-2.37h0.611c0 0 0.052 0.002 0.062-0.054l0.069-0.386c0.005-0.037-0.011-0.060-0.060-0.060h-0.593c0.003-0.013 0.030-0.223 0.098-0.419 0.029-0.084 0.084-0.152 0.13-0.198 0.043-0.044 0.097-0.078 0.155-0.097 0.064-0.020 0.132-0.030 0.199-0.029 0.056 0 0.111 0.007 0.152 0.015 0.057 0.012 0.080 0.019 0.095 0.023 0.060 0.018 0.069 0.001 0.080-0.029l0.142-0.39c0.015-0.042-0.021-0.060-0.034-0.065zM10.814 16.689c0 0.031-0.022 0.056-0.053 0.056h-0.492c-0.031 0-0.053-0.025-0.053-0.056v-3.967c0-0.031 0.022-0.056 0.053-0.056h0.492c0.031 0 0.053 0.025 0.053 0.056v3.967z"></path>
</symbol>
<symbol id="icon-wixcom-logo-black-1" viewBox="0 0 32 32">
<path fill="#000" style="fill: var(--color1, #000)" d="M11.899 10.64c-0.2 0-0.4-0.001-0.6-0.001-0.475-0.001-0.913 0.361-1.247 0.648-0.321 0.29-0.613 0.61-0.872 0.955-0.097-0.26-0.215-0.512-0.352-0.755-0.086-0.178-0.21-0.336-0.362-0.462s-0.329-0.22-0.52-0.274c-0.198-0.027-0.397-0.034-0.596-0.020-0.167-0.001-0.643 0-0.643 0s-0.476-0.001-0.643 0c-0.199-0.013-0.399-0.006-0.596 0.020-0.191 0.053-0.368 0.147-0.52 0.274s-0.275 0.284-0.362 0.462c-0.136 0.242-0.253 0.494-0.349 0.754-0.26-0.345-0.552-0.665-0.872-0.955-0.335-0.287-0.772-0.649-1.248-0.648l-0.6 0.001c-0.286 0-0.572 0.001-0.857 0.001-0.208 0.001-0.669-0.054-0.56 0.284 0.027 0.082 0.12 0.155 0.172 0.223l0.172 0.24 0.242 0.405 0.531 1.009c0.398 0.738 0.859 1.44 1.377 2.099 0.391 0.482 0.863 0.968 1.447 1.207-0.441 0.818-0.881 1.636-1.32 2.455l-1.22 2.21c-0.068 0.107-0.111 0.227-0.127 0.352 0 0.226 0.337 0.233 0.498 0.234l0.521-0.005c0.302-0.003 0.604-0.007 0.906-0.010l0.538-0.012c0.224-0.020 0.441-0.087 0.636-0.197s0.365-0.261 0.497-0.442c0.087-0.121 0.898-1.449 1.227-1.985l0.513-0.81 0.513 0.81 1.227 1.985c0.132 0.181 0.302 0.332 0.498 0.442s0.413 0.177 0.636 0.197c0.178 0.017 0.36 0.010 0.538 0.012 0.302 0.003 0.604 0.006 0.906 0.010l0.521 0.005c0.161-0.001 0.498-0.008 0.498-0.234-0.016-0.125-0.059-0.245-0.128-0.352l-0.057-0.101-1.162-2.108c-0.44-0.818-0.881-1.637-1.321-2.455 0.585-0.239 1.057-0.725 1.448-1.207 0.518-0.659 0.979-1.362 1.377-2.099l0.532-1.009 0.242-0.405c0.054-0.083 0.111-0.163 0.172-0.24 0.069-0.065 0.127-0.141 0.173-0.223 0.109-0.338-0.352-0.283-0.56-0.284-0.286-0-0.572-0.001-0.858-0.001l-0.002 0z"></path>
<path fill="#fff" style="fill: var(--color3, #fff)" d="M7.697 12.522l0.091-0.015c0.042-0.009 0.084-0.021 0.124-0.036 0.083-0.029 0.159-0.072 0.226-0.128 0.030-0.021 0.056-0.049 0.075-0.080-0.265 0.005-0.462 0.003-0.593-0.007-0.036-0.005-0.062 0.086-0.078 0.268-0.002 0.014 0.084 0.005 0.155-0.005l-0 0.003zM6.363 13.751c-0.003 0.003-0.005 0.009-0.005 0.013s0.003 0.011 0.007 0.015c0.012 0.012 0.026 0.022 0.040 0.032 0.084 0.056 0.183 0.085 0.283 0.083 0.101 0.002 0.2-0.027 0.284-0.083 0.015-0.009 0.029-0.020 0.042-0.032 0.010-0.008 0.015-0.021 0.007-0.034-0.009-0.009-0.024-0.009-0.034-0.001l-0.038 0.028h-0c-0.078 0.050-0.168 0.076-0.261 0.076s-0.183-0.026-0.261-0.076h-0.001c-0.012-0.009-0.024-0.018-0.036-0.028-0.004-0.003-0.009-0.005-0.015-0.005s-0.011 0.003-0.014 0.007v0.004zM7.524 13.578c-0.001-0.002-0.002-0.004-0.003-0.007 0.001 0.002 0.002 0.005 0.003 0.007h-0.001zM8.148 12.839c-0.023-0.051-0.058-0.096-0.101-0.132-0.121-0.091-0.289-0.084-0.402 0.017-0.048 0.048-0.086 0.105-0.113 0.168-0.068 0.145-0.101 0.304-0.097 0.464 0.003 0.073 0.032 0.143 0.080 0.198 0.064 0.058 0.145 0.096 0.231 0.106 0.085 0.025 0.176 0.022 0.258-0.011 0.082-0.060 0.137-0.149 0.152-0.249 0.038-0.117 0.055-0.24 0.049-0.363-0.007-0.070-0.026-0.138-0.057-0.201l0 0.003z"></path>
<path fill="#fff" style="fill: var(--color3, #fff)" d="M7.854 13.134c0.042-0.016 0.085-0.028 0.129-0.036-0.094 0.007-0.143-0.031-0.152-0.113l-0.018-0.168c0.003 0.074-0.011 0.149-0.042 0.216-0.011 0.019-0.027 0.034-0.045 0.045l-0.056 0.018c-0.021 0.007-0.042 0.012-0.064 0.014 0.103-0.009 0.158 0.017 0.167 0.074l0.034 0.163c0.002-0.127 0.019-0.196 0.050-0.209l-0.003-0.003zM7.983 13.388l-0.010-0.106c0.002 0.046-0.007 0.092-0.025 0.134-0.008 0.012-0.018 0.021-0.034 0.028l-0.033 0.010c-0.013 0.004-0.027 0.007-0.040 0.009 0.063-0.005 0.101 0.010 0.101 0.045l0.018 0.099c0-0.078 0.010-0.12 0.031-0.127 0.025-0.010 0.052-0.018 0.079-0.023-0.058 0.003-0.089-0.021-0.094-0.067z"></path>
<path fill="#fff" style="fill: var(--color3, #fff)" d="M5.829 12.527c-0.018-0.185-0.044-0.277-0.079-0.268-0.134 0.010-0.328 0.012-0.593 0.007 0.019 0.031 0.045 0.059 0.075 0.080 0.067 0.056 0.144 0.099 0.226 0.128 0.040 0.015 0.082 0.027 0.124 0.036 0.009 0.002 0.047 0.009 0.091 0.015 0.067 0.010 0.156 0.019 0.156 0.005l0-0.003zM5.85 13.582l0.003-0.007c-0.001 0.002-0.001 0.004-0.002 0.007h-0zM5.169 13.041c-0.006 0.123 0.011 0.246 0.049 0.363 0.008 0.049 0.025 0.097 0.051 0.14s0.060 0.080 0.101 0.109c0.082 0.033 0.173 0.034 0.258 0.011 0.086-0.011 0.167-0.048 0.235-0.106 0.049-0.055 0.077-0.125 0.080-0.198 0.004-0.16-0.030-0.319-0.101-0.464-0.026-0.064-0.065-0.122-0.113-0.171-0.113-0.101-0.281-0.107-0.402-0.017-0.044 0.036-0.078 0.080-0.101 0.132-0.031 0.063-0.051 0.131-0.057 0.201h-0z"></path>
<path fill="#fff" style="fill: var(--color3, #fff)" d="M5.52 13.134c-0.042-0.016-0.085-0.028-0.129-0.036 0.094 0.007 0.143-0.031 0.152-0.113l0.018-0.168c-0.003 0.074 0.011 0.149 0.042 0.216 0.011 0.019 0.026 0.034 0.045 0.045l0.056 0.018c0.021 0.007 0.042 0.012 0.065 0.014-0.103-0.009-0.159 0.017-0.167 0.074l-0.034 0.163c-0.002-0.127-0.019-0.196-0.050-0.209l0.003-0.003zM5.39 13.388l0.011-0.106c-0.001 0.046 0.007 0.091 0.025 0.134 0.007 0.011 0.017 0.021 0.030 0.028l0.034 0.010c0.013 0.004 0.027 0.007 0.040 0.009-0.063-0.005-0.101 0.010-0.101 0.045l-0.018 0.099c0-0.078-0.011-0.12-0.031-0.127-0.025-0.010-0.052-0.018-0.079-0.023 0.058 0.003 0.089-0.021 0.094-0.067l-0.005-0.003zM1.539 20.794l-0.082 0.167c-0.024 0.052-0.038 0.107-0.041 0.164v0.001c-0.001 0.038 0.014 0.074 0.042 0.1 0.033 0.028 0.072 0.048 0.114 0.059 0.097 0.023 0.197 0.033 0.297 0.030l0.054 0 1.467-0.016 0.111 0 0.329-0.012c0.437-0.038 0.842-0.268 1.103-0.621 0.062-0.093 0.122-0.187 0.18-0.283l0.341-0.551 0.704-1.149 0.513-0.811c0.004-0.006 0.010-0.011 0.016-0.015s0.014-0.006 0.021-0.006c0.015-0.001 0.029 0.008 0.034 0.021l0.514 0.811 1.044 1.699 0.181 0.283c0.128 0.176 0.293 0.323 0.483 0.43s0.401 0.172 0.619 0.191c0.109 0.009 0.219 0.013 0.329 0.012l0.112-0 0.094 0c0.301 0.003 0.603 0.007 0.906 0.010l0.471 0.006 0.054-0c0.074 0.001 0.148-0.004 0.221-0.014 0.069-0.007 0.135-0.033 0.19-0.075 0.014-0.013 0.025-0.028 0.032-0.045s0.011-0.036 0.010-0.055v-0.001c-0.003-0.057-0.017-0.112-0.040-0.168-0.024-0.058-0.055-0.116-0.082-0.165l-0.056-0.097-1.163-2.113c-0.44-0.818-0.881-1.637-1.32-2.455-0.006-0.011-0.007-0.024-0.002-0.036s0.013-0.021 0.025-0.026c0.572-0.233 1.041-0.714 1.43-1.193 0.517-0.657 0.976-1.358 1.373-2.094l0.402-0.772c-0.309 0.464-0.691 0.874-1.132 1.214-0.649 0.521-1.748 1.040-3.296 1.543-1.49 0.486-2.587 1.051-3.289 1.697l-0.704 0.625c-0.149 0.155-0.295 0.313-0.439 0.473-0.355 0.404-0.688 0.827-0.997 1.267l-0.341 0.483-0.773 1.387-0.056 0.099z"></path>
<path fill="#000" style="fill: var(--color1, #000)" d="M13.245 10.901c-0.014 0.033-0.035 0.063-0.060 0.089l-0.1 0.111c-0.063 0.079-0.122 0.162-0.177 0.247h0l-0.243 0.408-0.532 1.010c-0.396 0.734-0.854 1.433-1.37 2.088-0.388 0.478-0.852 0.954-1.416 1.184-0.020 0.008-0.037 0.025-0.044 0.046s-0.006 0.044 0.005 0.067c0.441 0.818 0.881 1.636 1.321 2.455l1.163 2.109 0.056 0.1 0.081 0.163c0.022 0.047 0.035 0.098 0.038 0.151v0.002c0.001 0.028-0.010 0.056-0.031 0.075-0.050 0.038-0.11 0.061-0.173 0.067-0.072 0.010-0.144 0.014-0.216 0.014h-0.059c-0.153 0-0.307-0.004-0.461-0.005-0.302-0.004-0.604-0.007-0.906-0.010l-0.082-0.001-0.128 0c-0.109 0-0.217-0.001-0.322-0.011-0.213-0.019-0.419-0.082-0.604-0.187s-0.347-0.248-0.473-0.42l-0.062-0.094-1.162-1.886-0.514-0.812c-0.014-0.022-0.040-0.036-0.067-0.036s-0.052 0.013-0.067 0.036c-0 0.001-0.389 0.607-0.514 0.812l-0.703 1.142-0.341 0.55-0.118 0.187-0.062 0.094c-0.254 0.348-0.647 0.569-1.077 0.607-0.104 0.010-0.212 0.011-0.322 0.011-0.042 0-0.085-0-0.128-0l-0.082 0.001c-0.302 0.003-0.604 0.006-0.906 0.010l-0.461 0.005h-0.059c-0.097 0.002-0.193-0.008-0.287-0.029-0.037-0.009-0.072-0.026-0.101-0.051-0.021-0.019-0.032-0.047-0.030-0.075v-0.001c0.003-0.052 0.016-0.103 0.038-0.151 0.024-0.056 0.054-0.113 0.080-0.163l0.056-0.099 1.163-2.109c0.44-0.818 0.88-1.637 1.32-2.455 0.011-0.019 0.012-0.043 0.005-0.067s-0.024-0.038-0.044-0.046c-0.563-0.23-1.029-0.705-1.416-1.184-0.515-0.656-0.974-1.355-1.369-2.088l-0.532-1.010-0.243-0.408c-0.055-0.085-0.114-0.168-0.177-0.247-0.032-0.041-0.069-0.077-0.1-0.111-0.026-0.025-0.046-0.055-0.060-0.089-0.008-0.022-0.012-0.045-0.013-0.069-0.001-0.019 0.005-0.037 0.017-0.052 0.030-0.027 0.068-0.045 0.109-0.049 0.063-0.011 0.127-0.016 0.191-0.015l0.182 0.003c0.286-0 0.572-0.001 0.857-0.001 0.2 0 0.4-0 0.6-0h0.002c0.226 0.010 0.445 0.080 0.634 0.205 0.198 0.126 0.385 0.267 0.559 0.424 0.317 0.287 0.605 0.603 0.862 0.944 0.018 0.022 0.046 0.034 0.074 0.029s0.052-0.023 0.062-0.050c0.096-0.256 0.212-0.505 0.347-0.743l0.001-0.003c0.161-0.318 0.486-0.625 0.828-0.695 0.094-0.017 0.189-0.025 0.285-0.023l0.296 0.005h1.287l0.296-0.005c0.095-0.002 0.191 0.006 0.285 0.023 0.342 0.069 0.668 0.377 0.828 0.695l0.001 0.003c0.135 0.238 0.251 0.487 0.347 0.743 0.010 0.027 0.034 0.046 0.062 0.050s0.057-0.007 0.074-0.029c0.256-0.341 0.545-0.658 0.862-0.944 0.175-0.156 0.362-0.298 0.56-0.424 0.189-0.124 0.408-0.195 0.634-0.205h0.002c0.2 0 0.4 0 0.6 0 0.286 0 0.572 0.001 0.858 0.001h0.006l0.175-0.003c0.081-0.003 0.162 0.006 0.24 0.028 0.022 0.007 0.043 0.019 0.059 0.036 0.012 0.015 0.018 0.033 0.016 0.052-0.001 0.023-0.005 0.047-0.013 0.069v0.004zM13.361 10.679c-0.052-0.055-0.122-0.091-0.197-0.101-0.073-0.013-0.148-0.019-0.222-0.018l-0.182 0.003c-0.286-0-0.572-0.001-0.858-0.001-0.2 0-0.403-0.001-0.6-0.001h-0.002c-0.255 0.010-0.502 0.089-0.716 0.228-0.206 0.13-0.403 0.277-0.582 0.436-0.292 0.262-0.559 0.55-0.797 0.86-0.089-0.219-0.192-0.432-0.307-0.637-0.186-0.38-0.526-0.663-0.935-0.775-0.101-0.020-0.21-0.029-0.317-0.027l-0.296 0.005h-1.287c-0.092 0-0.193-0.005-0.295-0.005-0.107-0.002-0.213 0.007-0.317 0.027-0.41 0.113-0.751 0.396-0.936 0.777-0.115 0.205-0.217 0.417-0.306 0.635-0.239-0.311-0.505-0.599-0.797-0.86-0.182-0.162-0.376-0.309-0.581-0.436-0.213-0.139-0.461-0.218-0.716-0.228h-0.004l-0.598 0.001c-0.286 0-0.572 0.001-0.857 0.001h-0.006c-0.046 0-0.109-0.003-0.175-0.003-0.099-0.004-0.199 0.009-0.294 0.037-0.048 0.016-0.092 0.044-0.126 0.082-0.036 0.043-0.056 0.098-0.054 0.154 0.001 0.040 0.007 0.079 0.020 0.117 0.021 0.054 0.052 0.104 0.092 0.145l0.093 0.102c0.060 0.075 0.116 0.153 0.168 0.234l0.24 0.402 0.531 1.006c0.4 0.742 0.863 1.448 1.384 2.11 0.377 0.463 0.832 0.935 1.4 1.193-0.428 0.794-0.854 1.588-1.277 2.382l-1.22 2.213-0.087 0.176c-0.030 0.066-0.047 0.137-0.050 0.211v0.003c-0 0.035 0.007 0.070 0.020 0.102s0.034 0.061 0.059 0.085c0.073 0.060 0.162 0.098 0.256 0.108 0.079 0.011 0.16 0.017 0.24 0.015h0.060l1.577-0.016 0.337-0.012c0.475-0.042 0.909-0.287 1.19-0.671l0.067-0.102 1.163-1.888 0.303-0.48 0.144-0.225 0.143 0.225 0.303 0.48 0.704 1.149 0.341 0.551 0.118 0.188 0.067 0.102c0.139 0.19 0.317 0.348 0.522 0.464s0.433 0.187 0.668 0.207c0.112 0.010 0.224 0.014 0.337 0.012h0.128l0.081 0 1.429 0.016c0.111 0.003 0.222-0.009 0.33-0.036 0.062-0.015 0.119-0.046 0.166-0.088 0.052-0.049 0.081-0.117 0.080-0.189v-0.002c-0.003-0.073-0.020-0.145-0.050-0.211-0.028-0.066-0.060-0.127-0.087-0.176l-0.059-0.103-1.161-2.106c-0.427-0.794-0.854-1.588-1.281-2.382 0.568-0.258 1.023-0.729 1.4-1.193 0.521-0.663 0.985-1.369 1.385-2.11l0.531-1.006 0.24-0.402c0.052-0.081 0.108-0.159 0.167-0.234v0.001c0.021-0.028 0.057-0.063 0.093-0.103 0.040-0.042 0.072-0.091 0.092-0.145 0.013-0.038 0.020-0.077 0.020-0.117 0.001-0.056-0.018-0.111-0.054-0.154l-0.002-0.004z"></path>
<path fill="#000" style="fill: var(--color1, #000)" d="M24.529 12.739c-0.346 0.181-0.475 0.486-0.475 1.33 0.127-0.114 0.275-0.204 0.435-0.263 0.159-0.060 0.308-0.141 0.445-0.241 0.293-0.214 0.338-0.489 0.338-0.952 0 0-0.477-0.013-0.743 0.126z"></path>
<path fill="#000" style="fill: var(--color1, #000)" d="M22.477 12.936c-0.18 0.176-0.307 0.399-0.365 0.644l-0.935 3.611-0.777-2.955c-0.076-0.314-0.212-0.703-0.428-0.965-0.275-0.335-0.834-0.355-0.893-0.355s-0.619 0.021-0.894 0.355c-0.216 0.263-0.352 0.651-0.428 0.965l-0.773 2.955-0.935-3.611c-0.057-0.245-0.184-0.468-0.364-0.644-0.457-0.402-1.144-0.316-1.144-0.316l1.789 6.748c0 0 0.59 0.042 0.885-0.108 0.388-0.197 0.572-0.349 0.807-1.268l0.849-3.394c0.027-0.085 0.061-0.287 0.21-0.287 0.152 0 0.183 0.202 0.21 0.287 0.054 0.168 0.64 2.576 0.849 3.394 0.235 0.918 0.42 1.070 0.807 1.268 0.295 0.15 0.886 0.108 0.886 0.108l1.788-6.748c0 0-0.686-0.086-1.144 0.316l-0.002 0zM25.274 13.718c-0.098 0.13-0.224 0.238-0.367 0.315-0.164 0.091-0.321 0.153-0.49 0.234-0.283 0.135-0.36 0.286-0.36 0.516v4.581c0 0 0.451 0.057 0.746-0.093 0.38-0.193 0.471-0.38 0.471-1.219l0-4.335zM29.73 16.010l2.27-3.368c0 0-0.958-0.163-1.432 0.268-0.238 0.237-0.453 0.495-0.643 0.771l-0.835 1.201c-0.012 0.038-0.036 0.071-0.068 0.094s-0.071 0.036-0.11 0.037c-0.082 0-0.154-0.053-0.178-0.134l-0.833-1.195c-0.19-0.276-0.405-0.535-0.643-0.771-0.471-0.431-1.432-0.268-1.432-0.268l2.27 3.368-2.264 3.358c0 0 0.998 0.125 1.472-0.302 0.224-0.22 0.424-0.462 0.597-0.724l0.835-1.201c0.012-0.038 0.036-0.071 0.068-0.094s0.071-0.036 0.11-0.037c0.082 0 0.154 0.053 0.178 0.134l0.835 1.201c0.182 0.26 0.387 0.502 0.615 0.724 0.471 0.431 1.455 0.302 1.455 0.302l-2.264-3.358z"></path>
</symbol>
<symbol id="icon-pinterest-logo-black-1" viewBox="0 0 32 32">
<path fill="#000" style="fill: var(--color1, #000)" d="M12.599 14.902h1.013v3.195h-1.013v-3.195z"></path>
<path fill="#000" style="fill: var(--color1, #000)" d="M13.823 14.902h0.976v0.437h0.019c0.236-0.343 0.541-0.53 0.982-0.53 0.696 0 1.106 0.499 1.106 1.21v2.078h-1.013v-1.872c0-0.337-0.168-0.568-0.497-0.568-0.335 0-0.559 0.281-0.559 0.674v1.766h-1.013v-3.195z"></path>
<path fill="#000" style="fill: var(--color1, #000)" d="M13.713 14.047c0-0.337-0.272-0.61-0.608-0.61s-0.608 0.273-0.608 0.61c0 0.337 0.272 0.61 0.608 0.61s0.608-0.273 0.608-0.61z"></path>
<path fill="#000" style="fill: var(--color1, #000)" d="M24.028 14.856c-0.029-0.003-0.062-0.004-0.101-0.004-0.385 0-0.646 0.168-0.87 0.549h-0.019v-0.499h-0.969v3.195h1.013v-1.435c0-0.665 0.367-0.973 0.946-0.919v-0.886z"></path>
<path fill="#000" style="fill: var(--color1, #000)" d="M28.998 16.081c-0.404-0.075-0.764-0.106-0.764-0.331 0-0.2 0.193-0.293 0.441-0.293 0.28 0 0.472 0.087 0.509 0.374h0.932c-0.050-0.63-0.534-1.023-1.435-1.023-0.752 0-1.373 0.349-1.373 1.023 0 0.749 0.59 0.898 1.143 0.992 0.423 0.075 0.808 0.106 0.808 0.393 0 0.206-0.193 0.318-0.497 0.318-0.305 0-0.508-0.13-0.569-0.393h-0.965c0.071 0.657 0.645 1.055 1.541 1.055 0.833 0 1.448-0.362 1.448-1.061 0-0.817-0.659-0.961-1.218-1.055z"></path>
<path fill="#000" style="fill: var(--color1, #000)" d="M25.599 15.532c0.329 0 0.565 0.243 0.603 0.624h-1.255c0.068-0.381 0.267-0.624 0.652-0.624zM25.655 17.46c-0.416 0-0.652-0.268-0.715-0.699h2.287c0.006-0.649-0.18-1.204-0.559-1.554-0.273-0.25-0.634-0.399-1.088-0.399-0.969 0-1.634 0.73-1.634 1.685 0 0.967 0.646 1.697 1.696 1.697 0.404 0 0.727-0.106 0.994-0.293 0.28-0.193 0.466-0.468 0.534-0.755h-0.988c-0.087 0.2-0.261 0.318-0.528 0.318z"></path>
<path fill="#000" style="fill: var(--color1, #000)" d="M32 17.343c-0.047 0.002-0.11 0.005-0.168 0.005-0.217 0-0.354-0.062-0.354-0.312v-1.498h0.522v-0.636h-0.522v-1.011h-0.988v1.011h-0.311v0.636h0.311v1.716c0 0.686 0.423 0.88 1.013 0.88 0.225 0 0.396-0.017 0.497-0.037v-0.754z"></path>
<path fill="#000" style="fill: var(--color1, #000)" d="M18.714 17.345c-0.040 0.002-0.087 0.003-0.131 0.003-0.217 0-0.354-0.062-0.354-0.312v-1.498h0.485v-0.636h-0.485v-1.011h-0.988v1.011h-0.329v0.636h0.329v1.716c0 0.686 0.422 0.88 1.013 0.88 0.2 0 0.356-0.013 0.46-0.030v-0.759z"></path>
<path fill="#000" style="fill: var(--color1, #000)" d="M20.92 16.156c-0.037-0.381-0.273-0.624-0.603-0.624-0.385 0-0.584 0.243-0.652 0.624h1.255zM18.664 16.493c0-0.955 0.665-1.685 1.634-1.685 0.454 0 0.814 0.15 1.087 0.399 0.379 0.349 0.565 0.905 0.559 1.554h-2.286c0.062 0.43 0.298 0.699 0.715 0.699 0.267 0 0.441-0.119 0.528-0.318h0.988c-0.068 0.287-0.255 0.562-0.534 0.755-0.267 0.187-0.59 0.293-0.994 0.293-1.050 0-1.696-0.73-1.696-1.697z"></path>
<path fill="#000" style="fill: var(--color1, #000)" d="M10.84 15.732c0.398 0 0.621-0.237 0.621-0.593s-0.23-0.574-0.621-0.574h-0.777v1.167h0.777zM9.038 13.635h1.759c0.541 0 0.938 0.15 1.212 0.412 0.286 0.268 0.447 0.649 0.447 1.098 0 0.855-0.59 1.46-1.504 1.46h-0.889v1.491h-1.025v-4.461z"></path>
<path fill="#fff" style="fill: var(--color3, #fff)" d="M7.648 16c0 2.121-1.712 3.84-3.824 3.84s-3.824-1.719-3.824-3.84c0-2.121 1.712-3.84 3.824-3.84s3.824 1.719 3.824 3.84z"></path>
<path fill="#000" style="fill: var(--color1, #000)" d="M3.824 12.16c-2.112 0-3.824 1.719-3.824 3.84 0 1.627 1.008 3.018 2.43 3.577-0.033-0.304-0.064-0.771 0.013-1.103 0.070-0.3 0.448-1.909 0.448-1.909s-0.114-0.23-0.114-0.57c0-0.534 0.308-0.933 0.692-0.933 0.326 0 0.484 0.246 0.484 0.541 0 0.329-0.209 0.822-0.317 1.279-0.090 0.382 0.191 0.694 0.566 0.694 0.68 0 1.202-0.72 1.202-1.758 0-0.919-0.658-1.562-1.597-1.562-1.088 0-1.727 0.819-1.727 1.666 0 0.33 0.127 0.684 0.285 0.876 0.031 0.038 0.036 0.071 0.026 0.11-0.029 0.121-0.094 0.382-0.106 0.436-0.017 0.070-0.055 0.085-0.128 0.051-0.478-0.223-0.776-0.924-0.776-1.488 0-1.211 0.876-2.324 2.527-2.324 1.326 0 2.357 0.949 2.357 2.218 0 1.323-0.831 2.388-1.984 2.388-0.387 0-0.752-0.202-0.876-0.441 0 0-0.192 0.733-0.238 0.913-0.086 0.334-0.319 0.752-0.475 1.007 0.358 0.111 0.738 0.171 1.132 0.171 2.112 0 3.824-1.719 3.824-3.84s-1.712-3.84-3.824-3.84z"></path>
</symbol>
</defs>
</svg>
